PathFileType	4	(X/Y/Z)	pose_F01_0-91.trc
DataRate	CameraRate	NumFrames	NumMarkers	Units	OrigDataRate	OrigDataStartFrame	OrigNumFrames
30	30	9	21	m	30	11	91
Frame#	Time	CHip			RHip			RKnee			RAnkle			RBigToe			RSmallToe			RHeel			LHip			LKnee			LAnkle			LBigToe			LSmallToe			LHeel			Neck			Nose			RShoulder			RElbow			RWrist			LShoulder			LElbow			LWrist			
		X1	Y1	Z1	X2	Y2	Z2	X3	Y3	Z3	X4	Y4	Z4	X5	Y5	Z5	X6	Y6	Z6	X7	Y7	Z7	X8	Y8	Z8	X9	Y9	Z9	X10	Y10	Z10	X11	Y11	Z11	X12	Y12	Z12	X13	Y13	Z13	X14	Y14	Z14	X15	Y15	Z15	X16	Y16	Z16	X17	Y17	Z17	X18	Y18	Z18	X19	Y19	Z19	X20	Y20	Z20	X21	Y21	Z21	
11	0.36666666666666664	-0.17261403777626386	1.8809977910781148	-0.617026021740234	-0.1870216812046173	1.879088487278077	-0.5502310258806861	-0.17774497603909523	1.7398277065269852	-0.5509556124328132	-0.1755827593102518	1.6017822799642891	-0.5401620555805454	-0.20822165074223506	1.561629900243046	-0.5145288085246349	-0.20268215221801295	1.568030752945085	-0.48985311369215395	-0.16988950324233953	1.590921900341501	-0.544813156799291	-0.159971714997577	1.8817913358421858	-0.6844841873808915	-0.15437690574738847	1.7401352250638233	-0.6573750326109994	-0.16156390374827126	1.5978952019713641	-0.6236923790244702	-0.18555336535555603	1.5559450346609354	-0.6112149088466072	-0.17784051582093072	1.5615433991747827	-0.6407910459398078	-0.1538028556391002	1.5867316666249824	-0.6133649429897436	-0.16264266460315785	2.049566537649867	-0.6432313813730002	-0.18503746877248672	2.1154245425962137	-0.6309496866786949	-0.18220352173961935	2.045457247921772	-0.5482641019739798	-0.1837375556331334	1.9604349405715809	-0.5220876338528807	-0.1970191288379088	1.8913820359484992	-0.47578006915789584	-0.14243407713546702	2.053865566540405	-0.7356036751969527	-1.422328157490521	1.8753704882453055	0.5837986578736178	-0.14376686944325637	1.8838944819324166	-0.7538166877940874
12	0.4	-0.17261403777626386	1.8809977910781148	-0.617026021740234	-0.1870216812046173	1.879088487278077	-0.5502310258806861	-0.17774497603909523	1.7398277065269852	-0.5509556124328132	-0.1755827593102518	1.6017822799642891	-0.5401620555805454	-0.20822165074223506	1.561629900243046	-0.5145288085246349	-0.20268215221801295	1.568030752945085	-0.48985311369215395	-0.16988950324233953	1.590921900341501	-0.544813156799291	-0.159971714997577	1.8817913358421858	-0.6844841873808915	-0.15437690574738847	1.7401352250638233	-0.6573750326109994	-0.16156390374827126	1.5978952019713641	-0.6236923790244702	-0.18555336535555603	1.5559450346609354	-0.6112149088466072	-0.17784051582093072	1.5615433991747827	-0.6407910459398078	-0.1538028556391002	1.5867316666249824	-0.6133649429897436	-0.16264266460315785	2.049566537649867	-0.6432313813730002	-0.18503746877248672	2.1154245425962137	-0.6309496866786949	-0.18220352173961935	2.045457247921772	-0.5482641019739798	-0.1837375556331334	1.9604349405715809	-0.5220876338528807	-0.1970191288379088	1.8913820359484992	-0.47578006915789584	-0.14243407713546702	2.053865566540405	-0.7356036751969527	-1.422317762642039	1.8754291414049336	0.5837661361554474	-0.14376686944325637	1.8838944819324166	-0.7538166877940874
13	0.43333333333333335	-0.17261403777626386	1.8809977910781148	-0.617026021740234	-0.1870216812046173	1.879088487278077	-0.5502310258806861	-0.17774497603909523	1.7398277065269852	-0.5509556124328132	-0.1755827593102518	1.6017822799642891	-0.5401620555805454	-0.20822165074223506	1.561629900243046	-0.5145288085246349	-0.20268215221801295	1.568030752945085	-0.48985311369215395	-0.16988950324233953	1.590921900341501	-0.544813156799291	-0.159971714997577	1.8817913358421858	-0.6844841873808915	-0.15437690574738847	1.7401352250638233	-0.6573750326109994	-0.16156390374827126	1.5978952019713641	-0.6236923790244702	-0.18555336535555603	1.5559450346609354	-0.6112149088466072	-0.17784051582093072	1.5615433991747827	-0.6407910459398078	-0.1538028556391002	1.5867316666249824	-0.6133649429897436	-0.16264266460315785	2.049566537649867	-0.6432313813730002	-0.18503746877248672	2.1154245425962137	-0.6309496866786949	-0.18220352173961935	2.045457247921772	-0.5482641019739798	-0.1837375556331334	1.9604349405715809	-0.5220876338528807	-0.1970191288379088	1.8913820359484992	-0.47578006915789584	-0.14243407713546702	2.053865566540405	-0.7356036751969527	-1.4223073677935565	1.8754877945645618	0.583733614437277	-0.14376686944325637	1.8838944819324166	-0.7538166877940874
14	0.4666666666666667	-0.17261403777626386	1.8809977910781148	-0.617026021740234	-0.1870216812046173	1.879088487278077	-0.5502310258806861	-0.17774497603909523	1.7398277065269852	-0.5509556124328132	-0.1755827593102518	1.6017822799642891	-0.5401620555805454	-0.20822165074223506	1.561629900243046	-0.5145288085246349	-0.20268215221801295	1.568030752945085	-0.48985311369215395	-0.16988950324233953	1.590921900341501	-0.544813156799291	-0.159971714997577	1.8817913358421858	-0.6844841873808915	-0.15437690574738847	1.7401352250638233	-0.6573750326109994	-0.16156390374827126	1.5978952019713641	-0.6236923790244702	-0.18555336535555603	1.5559450346609354	-0.6112149088466072	-0.17784051582093072	1.5615433991747827	-0.6407910459398078	-0.1538028556391002	1.5867316666249824	-0.6133649429897436	-0.16264266460315785	2.049566537649867	-0.6432313813730002	-0.18503746877248672	2.1154245425962137	-0.6309496866786949	-0.18220352173961935	2.045457247921772	-0.5482641019739798	-0.1837375556331334	1.9604349405715809	-0.5220876338528807	-0.1970191288379088	1.8913820359484992	-0.47578006915789584	-0.14243407713546702	2.053865566540405	-0.7356036751969527	-1.422296972945074	1.87554644772419	0.5837010927191065	-0.14376686944325637	1.8838944819324166	-0.7538166877940874
15	0.5	-0.17261403777626386	1.8809977910781148	-0.617026021740234	-0.1870216812046173	1.879088487278077	-0.5502310258806861	-0.17774497603909523	1.7398277065269852	-0.5509556124328132	-0.1755827593102518	1.6017822799642891	-0.5401620555805454	-0.20822165074223506	1.561629900243046	-0.5145288085246349	-0.20268215221801295	1.568030752945085	-0.48985311369215395	-0.16988950324233953	1.590921900341501	-0.544813156799291	-0.159971714997577	1.8817913358421858	-0.6844841873808915	-0.15437690574738847	1.7401352250638233	-0.6573750326109994	-0.16156390374827126	1.5978952019713641	-0.6236923790244702	-0.18555336535555603	1.5559450346609354	-0.6112149088466072	-0.17784051582093072	1.5615433991747827	-0.6407910459398078	-0.1538028556391002	1.5867316666249824	-0.6133649429897436	-0.16264266460315785	2.049566537649867	-0.6432313813730002	-0.18503746877248672	2.1154245425962137	-0.6309496866786949	-0.18220352173961935	2.045457247921772	-0.5482641019739798	-0.1837375556331334	1.9604349405715809	-0.5220876338528807	-0.1970191288379088	1.8913820359484992	-0.47578006915789584	-0.14243407713546702	2.053865566540405	-0.7356036751969527	-1.4222865780965916	1.8756051008838182	0.583668571000936	-0.14376686944325637	1.8838944819324166	-0.7538166877940874
16	0.5333333333333333	-0.17261403777626386	1.8809977910781148	-0.617026021740234	-0.1870216812046173	1.879088487278077	-0.5502310258806861	-0.17774497603909523	1.7398277065269852	-0.5509556124328132	-0.1755827593102518	1.6017822799642891	-0.5401620555805454	-0.20822165074223506	1.561629900243046	-0.5145288085246349	-0.20268215221801295	1.568030752945085	-0.48985311369215395	-0.16988950324233953	1.590921900341501	-0.544813156799291	-0.159971714997577	1.8817913358421858	-0.6844841873808915	-0.15437690574738847	1.7401352250638233	-0.6573750326109994	-0.16156390374827126	1.5978952019713641	-0.6236923790244702	-0.18555336535555603	1.5559450346609354	-0.6112149088466072	-0.17784051582093072	1.5615433991747827	-0.6407910459398078	-0.1538028556391002	1.5867316666249824	-0.6133649429897436	-0.16264266460315785	2.049566537649867	-0.6432313813730002	-0.18503746877248672	2.1154245425962137	-0.6309496866786949	-0.18220352173961935	2.045457247921772	-0.5482641019739798	-0.1837375556331334	1.9604349405715809	-0.5220876338528807	-0.1970191288379088	1.8913820359484992	-0.47578006915789584	-0.14243407713546702	2.053865566540405	-0.7356036751969527	-1.4222761832481092	1.8756637540434464	0.5836360492827656	-0.14376686944325637	1.8838944819324166	-0.7538166877940874
17	0.5666666666666667	-0.17261403777626386	1.8809977910781148	-0.617026021740234	-0.1870216812046173	1.879088487278077	-0.5502310258806861	-0.17774497603909523	1.7398277065269852	-0.5509556124328132	-0.1755827593102518	1.6017822799642891	-0.5401620555805454	-0.20822165074223506	1.561629900243046	-0.5145288085246349	-0.20268215221801295	1.568030752945085	-0.48985311369215395	-0.16988950324233953	1.590921900341501	-0.544813156799291	-0.159971714997577	1.8817913358421858	-0.6844841873808915	-0.15437690574738847	1.7401352250638233	-0.6573750326109994	-0.16156390374827126	1.5978952019713641	-0.6236923790244702	-0.18555336535555603	1.5559450346609354	-0.6112149088466072	-0.17784051582093072	1.5615433991747827	-0.6407910459398078	-0.1538028556391002	1.5867316666249824	-0.6133649429897436	-0.16264266460315785	2.049566537649867	-0.6432313813730002	-0.18503746877248672	2.1154245425962137	-0.6309496866786949	-0.18220352173961935	2.045457247921772	-0.5482641019739798	-0.1837375556331334	1.9604349405715809	-0.5220876338528807	-0.1970191288379088	1.8913820359484992	-0.47578006915789584	-0.14243407713546702	2.053865566540405	-0.7356036751969527	-0.13642879136957808	1.963672329773064	-0.757106150066801	-0.14376686944325637	1.8838944819324166	-0.7538166877940874
18	0.6	-0.17441246022660828	1.8807250945382015	-0.6146743230963895	-0.18890718730478942	1.8801565375585505	-0.5481057379056097	-0.1764621710397734	1.739796581335047	-0.5479589376359099	-0.1746475727386781	1.601672620807796	-0.5368878269777766	-0.2072980845769349	1.5629254956233718	-0.5110230726369254	-0.20265325655550823	1.5683579393592797	-0.4897938662158097	-0.16975738807787616	1.589783417588496	-0.5449945178877565	-0.16169146367942172	1.8826198499757927	-0.6821984722318125	-0.1517586033853937	1.7387504349685357	-0.6598988577991642	-0.16141340449726546	1.596850209416606	-0.6239751853183108	-0.18440839840461806	1.5546398377029123	-0.608245723633925	-0.17762825896931267	1.5603618916033106	-0.6410309589667821	-0.15460908953590433	1.5860726426746237	-0.6168226807347332	-0.16466958278874788	2.0494654183692447	-0.640967086753822	-0.18502179664141877	2.115443681327332	-0.6309573122092267	-0.18233435465749012	2.0443002384233764	-0.5482317912863062	-0.18303470412370007	1.9605156370825771	-0.519380062906426	-0.19704741490563477	1.8938359897658734	-0.47636121055061975	-0.14245456384887878	2.053844508692725	-0.7354921223058603	-0.1364281283967656	1.9636475182817255	-0.7571769274603213	-0.14577042769909854	1.8848688004239842	-0.7517127921361655
19	0.6333333333333333	-0.17475844779775038	1.8783635076832317	-0.6143886393660107	-0.18909162805404964	1.878946705866039	-0.5479850849004676	-0.17749798743514444	1.7411486830194216	-0.5512210798039326	-0.1757978814899088	1.6029903062519975	-0.5399998233358188	-0.2081042867152451	1.5615337486034473	-0.5145172982357692	-0.2026301049439475	1.5680603287564319	-0.48988920582406037	-0.17264021500286716	1.5923436116202525	-0.5464788619845831	-0.16204709638601839	1.8802754762092744	-0.6819236850437119	-0.15405166183927824	1.7373533325672113	-0.6574374047815349	-0.15904379463373935	1.5981562215427814	-0.6266981925086257	-0.18557007714612425	1.5560055653720115	-0.6111537689451828	-0.17788180612071255	1.5617384657164204	-0.6407818192019943	-0.15425301463177846	1.5871181717692926	-0.6173751124981548	-0.164780735455497	2.048374794299547	-0.6411425148306248	-0.18504109781476422	2.115468647467098	-0.630945094403748	-0.18237031520719432	2.0442513898602246	-0.5482435018268542	-0.18282914882330709	1.9589209600595665	-0.5185571794166683	-0.1977879860683095	1.8911050289776739	-0.47887603097981446	-0.14244843665228243	2.053867534369272	-0.735592890720693	-0.1387253816578281	1.9624428873539335	-0.7549247868125016	-0.14520424965055276	1.883701276971552	-0.748494880551332
